{"scene":0,"asset":{"generator":"ImageToStl.com","version":"2.0"},"scenes":[{"name":"Scene","nodes":[0]}],"nodes":[{"name":"Node0","children":[1,2,3,4,5,6,7,8,9,10,11,12,13,14,15,16,17,18]},{"name":"Node1","mesh":0},{"name":"Node2","mesh":1},{"name":"Node3","mesh":2},{"name":"Node4","mesh":3},{"name":"Node5","mesh":4},{"name":"Node6","mesh":5},{"name":"Node7","mesh":6},{"name":"Node8","mesh":7},{"name":"Node9","mesh":8},{"name":"Node10","mesh":9},{"name":"Node11","mesh":10},{"name":"Node12","mesh":11},{"name":"Node13","mesh":12},{"name":"Node14","mesh":13},{"name":"Node15","mesh":14},{"name":"Node16","mesh":15},{"name":"Node17","mesh":16},{"name":"Node18","mesh":17}],"materials":[{"name":"metal.001","pbrMetallicRoughness":{"baseColorFactor":[0.080012,0.080012,0.080012,1.0],"metallicFactor":0.0,"roughnessFactor":0.75},"emissiveFactor":[0.0,0.0,0.0],"doubleSided":true},{"name":"black.001","pbrMetallicRoughness":{"baseColorFactor":[0.017388,0.017388,0.017388,1.0],"metallicFactor":0.0,"roughnessFactor":0.75},"emissiveFactor":[0.0,0.0,0.0],"doubleSided":true},{"name":"paper.001","pbrMetallicRoughness":{"baseColorFactor":[0.8,0.8,0.8,1.0],"metallicFactor":0.0,"roughnessFactor":0.75},"emissiveFactor":[0.0,0.0,0.0],"doubleSided":true},{"name":"cup.001","pbrMetallicRoughness":{"baseColorFactor":[0.106039,0.195687,0.8,1.0],"metallicFactor":0.0,"roughnessFactor":0.75},"emissiveFactor":[0.0,0.0,0.0],"doubleSided":true},{"name":"folders3.001","pbrMetallicRoughness":{"baseColorFactor":[0.043153,0.037459,0.266761,1.0],"metallicFactor":0.0,"roughnessFactor":0.75},"emissiveFactor":[0.0,0.0,0.0],"doubleSided":true},{"name":"folders2.001","pbrMetallicRoughness":{"baseColorFactor":[0.239552,0.006799,0.005997,1.0],"metallicFactor":0.0,"roughnessFactor":0.75},"emissiveFactor":[0.0,0.0,0.0],"doubleSided":true},{"name":"folders1.001","pbrMetallicRoughness":{"baseColorFactor":[0.009028,0.173355,0.021704,1.0],"metallicFactor":0.0,"roughnessFactor":0.75},"emissiveFactor":[0.0,0.0,0.0],"doubleSided":true},{"name":"wood.001","pbrMetallicRoughness":{"baseColorFactor":[0.334323,0.118691,0.039021,1.0],"metallicFactor":0.0,"roughnessFactor":0.75},"emissiveFactor":[0.0,0.0,0.0],"doubleSided":true},{"name":"pencil1.001","pbrMetallicRoughness":{"baseColorFactor":[0.581462,0.469066,0.02133,1.0],"metallicFactor":0.0,"roughnessFactor":0.75},"emissiveFactor":[0.0,0.0,0.0],"doubleSided":true},{"name":"pencil2.001","pbrMetallicRoughness":{"baseColorFactor":[0.8,0.12845,0.181466,1.0],"metallicFactor":0.0,"roughnessFactor":0.75},"emissiveFactor":[0.0,0.0,0.0],"doubleSided":true},{"name":"coffee.001","pbrMetallicRoughness":{"baseColorFactor":[0.066807,0.024899,0.014739,1.0],"metallicFactor":0.0,"roughnessFactor":0.75},"emissiveFactor":[0.0,0.0,0.0],"doubleSided":true},{"name":"plant_green.001","pbrMetallicRoughness":{"baseColorFactor":[0.027886,0.626662,0.015197,1.0],"metallicFactor":0.0,"roughnessFactor":0.75},"emissiveFactor":[0.0,0.0,0.0],"doubleSided":true}],"meshes":[{"name":"Mesh0","primitives":[{"indices":2,"material":0,"attributes":{"POSITION":0,"NORMAL":1}},{"indices":3,"material":1,"attributes":{"POSITION":0,"NORMAL":1}}]},{"name":"Mesh0","primitives":[{"indices":6,"material":2,"attributes":{"POSITION":4,"NORMAL":5}},{"indices":7,"material":3,"attributes":{"POSITION":4,"NORMAL":5}}]},{"name":"Mesh0","primitives":[{"indices":10,"material":2,"attributes":{"POSITION":8,"NORMAL":9}},{"indices":11,"material":4,"attributes":{"POSITION":8,"NORMAL":9}}]},{"name":"Mesh0","primitives":[{"indices":14,"material":2,"attributes":{"POSITION":12,"NORMAL":13}},{"indices":15,"material":5,"attributes":{"POSITION":12,"NORMAL":13}}]},{"name":"Mesh0","primitives":[{"indices":18,"material":2,"attributes":{"POSITION":16,"NORMAL":17}},{"indices":19,"material":6,"attributes":{"POSITION":16,"NORMAL":17}}]},{"name":"Mesh0","primitives":[{"indices":22,"material":0,"attributes":{"POSITION":20,"NORMAL":21}},{"indices":23,"material":1,"attributes":{"POSITION":20,"NORMAL":21}},{"indices":24,"material":7,"attributes":{"POSITION":20,"NORMAL":21}},{"indices":25,"material":8,"attributes":{"POSITION":20,"NORMAL":21}},{"indices":26,"material":9,"attributes":{"POSITION":20,"NORMAL":21}}]},{"name":"Mesh0","primitives":[{"indices":29,"material":2,"attributes":{"POSITION":27,"NORMAL":28}}]},{"name":"Mesh0","primitives":[{"indices":32,"material":2,"attributes":{"POSITION":30,"NORMAL":31}}]},{"name":"Mesh0","primitives":[{"indices":35,"material":2,"attributes":{"POSITION":33,"NORMAL":34}}]},{"name":"Mesh0","primitives":[{"indices":38,"material":7,"attributes":{"POSITION":36,"NORMAL":37}},{"indices":39,"material":9,"attributes":{"POSITION":36,"NORMAL":37}},{"indices":40,"material":10,"attributes":{"POSITION":36,"NORMAL":37}},{"indices":41,"material":11,"attributes":{"POSITION":36,"NORMAL":37}}]},{"name":"Mesh0","primitives":[{"indices":44,"material":3,"attributes":{"POSITION":42,"NORMAL":43}},{"indices":45,"material":10,"attributes":{"POSITION":42,"NORMAL":43}}]},{"name":"Mesh0","primitives":[{"indices":48,"material":0,"attributes":{"POSITION":46,"NORMAL":47}}]},{"name":"Mesh0","primitives":[{"indices":51,"material":1,"attributes":{"POSITION":49,"NORMAL":50}},{"indices":52,"material":2,"attributes":{"POSITION":49,"NORMAL":50}},{"indices":53,"material":6,"attributes":{"POSITION":49,"NORMAL":50}}]},{"name":"Mesh0","primitives":[{"indices":56,"material":2,"attributes":{"POSITION":54,"NORMAL":55}},{"indices":57,"material":4,"attributes":{"POSITION":54,"NORMAL":55}},{"indices":58,"material":5,"attributes":{"POSITION":54,"NORMAL":55}}]},{"name":"Mesh0","primitives":[{"indices":61,"material":1,"attributes":{"POSITION":59,"NORMAL":60}},{"indices":62,"material":2,"attributes":{"POSITION":59,"NORMAL":60}},{"indices":63,"material":6,"attributes":{"POSITION":59,"NORMAL":60}}]},{"name":"Mesh0","primitives":[{"indices":66,"material":0,"attributes":{"POSITION":64,"NORMAL":65}},{"indices":67,"material":1,"attributes":{"POSITION":64,"NORMAL":65}}]},{"name":"Mesh0","primitives":[{"indices":70,"material":0,"attributes":{"POSITION":68,"NORMAL":69}},{"indices":71,"material":7,"attributes":{"POSITION":68,"NORMAL":69}}]},{"name":"Mesh0","primitives":[{"indices":74,"material":1,"attributes":{"POSITION":72,"NORMAL":73}}]}],"accessors":[{"bufferView":0,"componentType":5126,"count":116,"type":"VEC3","min":[0.42806026,-0.12901445,-0.4331385],"max":[0.97303134,0.47759038,0.49887833]},{"bufferView":1,"componentType":5126,"count":116,"type":"VEC3"},{"bufferView":2,"componentType":5123,"count":192,"type":"SCALAR"},{"bufferView":3,"componentType":5123,"count":408,"type":"SCALAR"},{"bufferView":4,"componentType":5126,"count":44,"type":"VEC3","min":[0.7967718,1.3616192,0.48267886],"max":[0.9414949,1.5216799,0.5134075]},{"bufferView":5,"componentType":5126,"count":44,"type":"VEC3"},{"bufferView":6,"componentType":5123,"count":18,"type":"SCALAR"},{"bufferView":7,"componentType":5123,"count":234,"type":"SCALAR"},{"bufferView":8,"componentType":5126,"count":44,"type":"VEC3","min":[0.7545709,1.2997991,0.44119397],"max":[0.97742397,1.5837369,0.48336223]},{"bufferView":9,"componentType":5126,"count":44,"type":"VEC3"},{"bufferView":10,"componentType":5123,"count":18,"type":"SCALAR"},{"bufferView":11,"componentType":5123,"count":234,"type":"SCALAR"},{"bufferView":12,"componentType":5126,"count":44,"type":"VEC3","min":[0.74897575,1.2944885,0.39935333],"max":[0.99182546,1.5886048,0.44152158]},{"bufferView":13,"componentType":5126,"count":44,"type":"VEC3"},{"bufferView":14,"componentType":5123,"count":18,"type":"SCALAR"},{"bufferView":15,"componentType":5123,"count":234,"type":"SCALAR"},{"bufferView":16,"componentType":5126,"count":44,"type":"VEC3","min":[0.7550461,1.2838056,0.35964125],"max":[0.9868036,1.6011873,0.39972708]},{"bufferView":17,"componentType":5126,"count":44,"type":"VEC3"},{"bufferView":18,"componentType":5123,"count":18,"type":"SCALAR"},{"bufferView":19,"componentType":5123,"count":234,"type":"SCALAR"},{"bufferView":20,"componentType":5126,"count":30,"type":"VEC3","min":[-0.0067206845,0.8831635,0.44680613],"max":[0.006720685,1.0564457,0.45958963]},{"bufferView":21,"componentType":5126,"count":30,"type":"VEC3"},{"bufferView":22,"componentType":5123,"count":30,"type":"SCALAR"},{"bufferView":23,"componentType":5123,"count":39,"type":"SCALAR"},{"bufferView":24,"componentType":5123,"count":30,"type":"SCALAR"},{"bufferView":25,"componentType":5123,"count":30,"type":"SCALAR"},{"bufferView":26,"componentType":5123,"count":39,"type":"SCALAR"},{"bufferView":27,"componentType":5126,"count":30,"type":"VEC3","min":[-0.16249456,0.82357204,0.43471128],"max":[0.16966945,1.0580659,0.446893]},{"bufferView":28,"componentType":5126,"count":30,"type":"VEC3"},{"bufferView":29,"componentType":5123,"count":120,"type":"SCALAR"},{"bufferView":30,"componentType":5126,"count":30,"type":"VEC3","min":[-0.16129433,0.8517166,0.44087392],"max":[0.16094606,1.0633391,0.48080084]},{"bufferView":31,"componentType":5126,"count":30,"type":"VEC3"},{"bufferView":32,"componentType":5123,"count":120,"type":"SCALAR"},{"bufferView":33,"componentType":5126,"count":30,"type":"VEC3","min":[-0.16179347,0.8147794,0.427608],"max":[0.16795936,1.0443823,0.43820006]},{"bufferView":34,"componentType":5126,"count":30,"type":"VEC3"},{"bufferView":35,"componentType":5123,"count":120,"type":"SCALAR"},{"bufferView":36,"componentType":5126,"count":86,"type":"VEC3","min":[-0.24513024,1.4242691,0.42281157],"max":[-0.056463122,1.6063402,0.74552613]},{"bufferView":37,"componentType":5126,"count":86,"type":"VEC3"},{"bufferView":38,"componentType":5123,"count":156,"type":"SCALAR"},{"bufferView":39,"componentType":5123,"count":162,"type":"SCALAR"},{"bufferView":40,"componentType":5123,"count":18,"type":"SCALAR"},{"bufferView":41,"componentType":5123,"count":120,"type":"SCALAR"},{"bufferView":42,"componentType":5126,"count":64,"type":"VEC3","min":[0.04546035,1.0905544,0.42690268],"max":[0.13750565,1.2106934,0.51894796]},{"bufferView":43,"componentType":5126,"count":64,"type":"VEC3"},{"bufferView":44,"componentType":5123,"count":366,"type":"SCALAR"},{"bufferView":45,"componentType":5123,"count":18,"type":"SCALAR"},{"bufferView":46,"componentType":5126,"count":84,"type":"VEC3","min":[-0.30393478,-0.02389966,0.4254176],"max":[0.08101596,0.38350037,1.0153524]},{"bufferView":47,"componentType":5126,"count":84,"type":"VEC3"},{"bufferView":48,"componentType":5123,"count":480,"type":"SCALAR"},{"bufferView":49,"componentType":5126,"count":88,"type":"VEC3","min":[0.6502378,1.2476192,-0.0677361],"max":[0.8252932,1.5276191,0.23226392]},{"bufferView":50,"componentType":5126,"count":88,"type":"VEC3"},{"bufferView":51,"componentType":5123,"count":258,"type":"SCALAR"},{"bufferView":52,"componentType":5123,"count":12,"type":"SCALAR"},{"bufferView":53,"componentType":5123,"count":258,"type":"SCALAR"},{"bufferView":54,"componentType":5126,"count":88,"type":"VEC3","min":[0.19656238,1.2476192,-0.06984621],"max":[0.3716178,1.5276191,0.2301538]},{"bufferView":55,"componentType":5126,"count":88,"type":"VEC3"},{"bufferView":56,"componentType":5123,"count":12,"type":"SCALAR"},{"bufferView":57,"componentType":5123,"count":258,"type":"SCALAR"},{"bufferView":58,"componentType":5123,"count":258,"type":"SCALAR"},{"bufferView":59,"componentType":5126,"count":132,"type":"VEC3","min":[-0.2908749,1.2476192,-0.06984621],"max":[-0.02033475,1.5276191,0.2301538]},{"bufferView":60,"componentType":5126,"count":132,"type":"VEC3"},{"bufferView":61,"componentType":5123,"count":258,"type":"SCALAR"},{"bufferView":62,"componentType":5123,"count":18,"type":"SCALAR"},{"bufferView":63,"componentType":5123,"count":516,"type":"SCALAR"},{"bufferView":64,"componentType":5126,"count":828,"type":"VEC3","min":[-0.135,0.326962,0.42461127],"max":[0.135,0.73696196,0.73545676]},{"bufferView":65,"componentType":5126,"count":828,"type":"VEC3"},{"bufferView":66,"componentType":5123,"count":3774,"type":"SCALAR"},{"bufferView":67,"componentType":5123,"count":12,"type":"SCALAR"},{"bufferView":68,"componentType":5126,"count":152,"type":"VEC3","min":[-0.34999993,-0.03193474,-0.4],"max":[1.07306,1.6680652,0.42808735]},{"bufferView":69,"componentType":5126,"count":152,"type":"VEC3"},{"bufferView":70,"componentType":5123,"count":324,"type":"SCALAR"},{"bufferView":71,"componentType":5123,"count":456,"type":"SCALAR"},{"bufferView":72,"componentType":5126,"count":4,"type":"VEC3","min":[-0.118004724,0.33795553,0.4876943],"max":[-0.11800471,0.7259684,0.7132193]},{"bufferView":73,"componentType":5126,"count":4,"type":"VEC3"},{"bufferView":74,"componentType":5123,"count":6,"type":"SCALAR"}],"bufferViews":[{"target":34962,"buffer":0,"byteLength":1392,"byteOffset":0},{"target":34962,"buffer":0,"byteLength":1392,"byteOffset":1392},{"target":34963,"buffer":0,"byteLength":384,"byteOffset":2784},{"target":34963,"buffer":0,"byteLength":816,"byteOffset":3168},{"target":34962,"buffer":0,"byteLength":528,"byteOffset":3984},{"target":34962,"buffer":0,"byteLength":528,"byteOffset":4512},{"target":34963,"buffer":0,"byteLength":36,"byteOffset":5040},{"target":34963,"buffer":0,"byteLength":468,"byteOffset":5076},{"target":34962,"buffer":0,"byteLength":528,"byteOffset":5544},{"target":34962,"buffer":0,"byteLength":528,"byteOffset":6072},{"target":34963,"buffer":0,"byteLength":36,"byteOffset":6600},{"target":34963,"buffer":0,"byteLength":468,"byteOffset":6636},{"target":34962,"buffer":0,"byteLength":528,"byteOffset":7104},{"target":34962,"buffer":0,"byteLength":528,"byteOffset":7632},{"target":34963,"buffer":0,"byteLength":36,"byteOffset":8160},{"target":34963,"buffer":0,"byteLength":468,"byteOffset":8196},{"target":34962,"buffer":0,"byteLength":528,"byteOffset":8664},{"target":34962,"buffer":0,"byteLength":528,"byteOffset":9192},{"target":34963,"buffer":0,"byteLength":36,"byteOffset":9720},{"target":34963,"buffer":0,"byteLength":468,"byteOffset":9756},{"target":34962,"buffer":0,"byteLength":360,"byteOffset":10224},{"target":34962,"buffer":0,"byteLength":360,"byteOffset":10584},{"target":34963,"buffer":0,"byteLength":60,"byteOffset":10944},{"target":34963,"buffer":0,"byteLength":78,"byteOffset":11004},{"target":34963,"buffer":0,"byteLength":60,"byteOffset":11084},{"target":34963,"buffer":0,"byteLength":60,"byteOffset":11144},{"target":34963,"buffer":0,"byteLength":78,"byteOffset":11204},{"target":34962,"buffer":0,"byteLength":360,"byteOffset":11284},{"target":34962,"buffer":0,"byteLength":360,"byteOffset":11644},{"target":34963,"buffer":0,"byteLength":240,"byteOffset":12004},{"target":34962,"buffer":0,"byteLength":360,"byteOffset":12244},{"target":34962,"buffer":0,"byteLength":360,"byteOffset":12604},{"target":34963,"buffer":0,"byteLength":240,"byteOffset":12964},{"target":34962,"buffer":0,"byteLength":360,"byteOffset":13204},{"target":34962,"buffer":0,"byteLength":360,"byteOffset":13564},{"target":34963,"buffer":0,"byteLength":240,"byteOffset":13924},{"target":34962,"buffer":0,"byteLength":1032,"byteOffset":14164},{"target":34962,"buffer":0,"byteLength":1032,"byteOffset":15196},{"target":34963,"buffer":0,"byteLength":312,"byteOffset":16228},{"target":34963,"buffer":0,"byteLength":324,"byteOffset":16540},{"target":34963,"buffer":0,"byteLength":36,"byteOffset":16864},{"target":34963,"buffer":0,"byteLength":240,"byteOffset":16900},{"target":34962,"buffer":0,"byteLength":768,"byteOffset":17140},{"target":34962,"buffer":0,"byteLength":768,"byteOffset":17908},{"target":34963,"buffer":0,"byteLength":732,"byteOffset":18676},{"target":34963,"buffer":0,"byteLength":36,"byteOffset":19408},{"target":34962,"buffer":0,"byteLength":1008,"byteOffset":19444},{"target":34962,"buffer":0,"byteLength":1008,"byteOffset":20452},{"target":34963,"buffer":0,"byteLength":960,"byteOffset":21460},{"target":34962,"buffer":0,"byteLength":1056,"byteOffset":22420},{"target":34962,"buffer":0,"byteLength":1056,"byteOffset":23476},{"target":34963,"buffer":0,"byteLength":516,"byteOffset":24532},{"target":34963,"buffer":0,"byteLength":24,"byteOffset":25048},{"target":34963,"buffer":0,"byteLength":516,"byteOffset":25072},{"target":34962,"buffer":0,"byteLength":1056,"byteOffset":25588},{"target":34962,"buffer":0,"byteLength":1056,"byteOffset":26644},{"target":34963,"buffer":0,"byteLength":24,"byteOffset":27700},{"target":34963,"buffer":0,"byteLength":516,"byteOffset":27724},{"target":34963,"buffer":0,"byteLength":516,"byteOffset":28240},{"target":34962,"buffer":0,"byteLength":1584,"byteOffset":28756},{"target":34962,"buffer":0,"byteLength":1584,"byteOffset":30340},{"target":34963,"buffer":0,"byteLength":516,"byteOffset":31924},{"target":34963,"buffer":0,"byteLength":36,"byteOffset":32440},{"target":34963,"buffer":0,"byteLength":1032,"byteOffset":32476},{"target":34962,"buffer":0,"byteLength":9936,"byteOffset":33508},{"target":34962,"buffer":0,"byteLength":9936,"byteOffset":43444},{"target":34963,"buffer":0,"byteLength":7548,"byteOffset":53380},{"target":34963,"buffer":0,"byteLength":24,"byteOffset":60928},{"target":34962,"buffer":0,"byteLength":1824,"byteOffset":60952},{"target":34962,"buffer":0,"byteLength":1824,"byteOffset":62776},{"target":34963,"buffer":0,"byteLength":648,"byteOffset":64600},{"target":34963,"buffer":0,"byteLength":912,"byteOffset":65248},{"target":34962,"buffer":0,"byteLength":48,"byteOffset":66160},{"target":34962,"buffer":0,"byteLength":48,"byteOffset":66208},{"target":34963,"buffer":0,"byteLength":12,"byteOffset":66256}],"buffers":[{"byteLength":66268,"uri":"data:application/octet-stream;base64,"}]}